<svg width="418" height="499" viewBox="0 0 418 499" fill="none" xmlns="http://www.w3.org/2000/svg">
    <path
        d="M209 252.358C156.236 252.358 113.464 258.939 113.464 267.056C113.464 275.174 156.238 283.759 209 283.759C261.765 283.759 304.537 275.174 304.537 267.056C304.538 258.939 261.765 252.358 209 252.358Z"
        fill="#DDDDDD" />
    <path d="M158.556 254.573C93.2562 260.833 102.776 275.199 163.213 281.493C135.604 273.833 129.915 262.513 158.556 254.573Z"
        fill="#BFC0C1" />
    <path
        d="M44.1207 75.6457H12.0258C5.41125 75.6457 0 81.0569 0 87.6715V135.106C0 141.721 5.41125 147.132 12.0258 147.132H43.077C35.6513 123.933 35.9703 98.7605 44.1207 75.6457Z"
        fill="#BFC0C1" />
    <path
        d="M20.6577 135.106V87.6715C20.6577 81.0569 26.069 75.6457 32.6835 75.6457H12.0258C5.41125 75.6457 0 81.0569 0 87.6715V135.106C0 141.721 5.41125 147.132 12.0258 147.132H32.6825C26.069 147.132 20.6577 141.721 20.6577 135.106Z"
        fill="#989DA0" />
    <path
        d="M405.974 75.6457H373.879C382.013 98.7128 382.363 123.885 374.923 147.132H405.974C412.589 147.132 418 141.721 418 135.106V87.6715C418 81.0579 412.588 75.6457 405.974 75.6457Z"
        fill="#BFC0C1" />
    <path
        d="M397.944 75.6457H373.879C382.013 98.7128 382.363 123.885 374.923 147.132H398.987C406.413 123.933 406.094 98.7605 397.944 75.6457Z"
        fill="#989DA0" />
    <path
        d="M382.258 112.939C382.258 50.8228 331.435 0 269.319 0H148.681C86.6081 0 35.7435 50.78 35.7435 112.939C35.7435 175.055 86.5663 225.878 148.682 225.878H269.32C331.392 225.877 382.258 175.097 382.258 112.939Z"
        fill="#DDDDDD" />
    <path
        d="M56.4002 112.939C56.4002 50.8228 107.222 0 169.338 0H148.681C86.6684 0 35.7435 50.7197 35.7435 112.939C35.7435 175.055 86.5663 225.878 148.682 225.878H169.339C107.222 225.877 56.4002 175.054 56.4002 112.939Z"
        fill="#BFC0C1" />
    <path
        d="M264.312 33.7661C251.023 33.7661 170.483 33.7661 153.687 33.7661C110.142 33.7661 74.5151 69.394 74.5151 112.938C74.5151 156.483 110.143 192.11 153.687 192.11C170.269 192.11 250.937 192.11 264.312 192.11C307.857 192.11 343.484 156.483 343.484 112.938C343.484 69.394 307.857 33.7661 264.312 33.7661Z"
        fill="#585A60" />
    <path
        d="M95.4709 112.939C95.4709 69.3942 131.099 33.7673 174.643 33.7673H153.39C109.845 33.7673 74.2179 69.3942 74.2179 112.939C74.2179 156.484 109.845 192.111 153.39 192.111H174.643C131.098 192.111 95.4709 156.483 95.4709 112.939Z"
        fill="#414356" />
    <path
        d="M155.06 116.996C170.557 116.996 183.12 114.982 183.12 112.498C183.12 110.014 170.557 108 155.06 108C139.564 108 127.001 110.014 127.001 112.498C127.001 114.982 139.564 116.996 155.06 116.996Z"
        fill="#6EDCF9" />
    <path
        d="M263.413 116.996C278.909 116.996 291.472 114.982 291.472 112.498C291.472 110.014 278.909 108 263.413 108C247.916 108 235.354 110.014 235.354 112.498C235.354 114.982 247.916 116.996 263.413 116.996Z"
        fill="#6EDCF9" />
    <path
        d="M147.656 112.498C147.656 110.599 155.003 108.976 165.388 108.316C162.19 108.113 158.708 108 155.059 108C139.562 108 127 110.014 127 112.498C127 114.982 139.563 116.996 155.059 116.996C158.708 116.996 162.19 116.883 165.388 116.68C155.003 116.021 147.656 114.398 147.656 112.498Z"
        fill="#52C7E2" />
    <path
        d="M273.746 108.316C270.549 108.113 267.066 108 263.418 108C247.92 108 235.358 110.014 235.358 112.498C235.358 115.67 255.343 117.849 273.747 116.68C250.152 115.182 250.16 109.814 273.746 108.316Z"
        fill="#52C7E2" />
    <path
        d="M303.704 265.111C304.251 265.747 304.538 266.397 304.538 267.056C304.538 275.174 261.764 281.754 209.001 281.754C151.401 281.754 106.688 273.957 114.299 265.11C89.0004 289.762 73.2812 324.2 73.2812 362.314C73.2812 437.27 134.044 498.034 209 498.034C283.956 498.034 344.72 437.27 344.72 362.314C344.72 324.201 329.002 289.762 303.704 265.111Z"
        fill="#DDDDDD" />
    <path
        d="M126.267 274.41C120.575 272.897 110.465 269.566 114.297 265.11C88.9987 289.762 73.2795 324.2 73.2795 362.314C73.2795 437.27 134.044 498.034 209 498.034C212.474 498.034 215.919 497.902 219.328 497.646C108.768 489.326 54.7103 358.48 126.267 274.41Z"
        fill="#BFC0C1" />
    <path
        d="M166.811 314.399C167.328 319.816 167.493 318.79 200.497 353.983C205.174 358.659 212.827 358.659 217.504 353.983C250.516 318.782 250.673 319.819 251.191 314.399C223.967 316.831 194.732 316.894 166.811 314.399Z"
        fill="#F7AC16" />
    <path
        d="M190.113 315.875C182.162 315.567 174.376 315.075 166.811 314.399C167.328 319.816 167.493 318.79 200.497 353.983C205.174 358.659 212.827 358.659 217.504 353.983L220.53 350.756C190.603 318.845 191.063 320.152 190.113 315.875Z"
        fill="#EF9614" />
    <path
        d="M329.76 300.34C323.006 287.209 314.179 275.318 303.703 265.11C304.251 265.746 304.538 266.396 304.538 267.055C304.538 275.173 261.763 281.753 209.001 281.753C151.4 281.753 106.688 273.956 114.298 265.109C103.822 275.318 94.9956 287.207 88.241 300.34C153.42 324.103 264.549 324.115 329.76 300.34Z"
        fill="#989DA0" />
    <path
        d="M88.2395 300.34C93.7899 302.363 99.7828 304.246 106.162 305.973C111.405 294.507 118.193 283.896 126.266 274.41C120.592 272.903 110.476 269.552 114.297 265.11C104.09 275.056 95.1264 286.952 88.2395 300.34Z"
        fill="#838384" />
</svg>